<mxfile host="app.diagrams.net" modified="2020-07-20T13:14:53.466Z" agent="5.0 (X11; Linux x86_64) AppleWebKit/537.36 (KHTML, like Gecko) Chrome/83.0.4103.116 Safari/537.36" etag="wmAzMg6bBQ5UNXUJ-_fk" version="13.4.8" type="github">
  <diagram id="XOEvKLrMgTAw1EBrf4x-" name="Page-1">
    <mxGraphModel dx="2249" dy="774" grid="1" gridSize="10" guides="1" tooltips="1" connect="1" arrows="1" fold="1" page="1" pageScale="1" pageWidth="827" pageHeight="1169" math="0" shadow="0">
      <root>
        <mxCell id="0" />
        <mxCell id="1" parent="0" />
        <mxCell id="p44W1_RWTx9BuEISgwGz-14" style="edgeStyle=orthogonalEdgeStyle;rounded=0;orthogonalLoop=1;jettySize=auto;html=1;exitX=1;exitY=0.5;exitDx=0;exitDy=0;entryX=0;entryY=0.5;entryDx=0;entryDy=0;entryPerimeter=0;" edge="1" parent="1" source="p44W1_RWTx9BuEISgwGz-1" target="p44W1_RWTx9BuEISgwGz-9">
          <mxGeometry relative="1" as="geometry" />
        </mxCell>
        <mxCell id="p44W1_RWTx9BuEISgwGz-1" value="Incident&lt;br&gt;Ingestion API" style="rounded=0;whiteSpace=wrap;html=1;" vertex="1" parent="1">
          <mxGeometry x="220" y="100" width="120" height="60" as="geometry" />
        </mxCell>
        <mxCell id="p44W1_RWTx9BuEISgwGz-6" style="edgeStyle=orthogonalEdgeStyle;rounded=0;orthogonalLoop=1;jettySize=auto;html=1;exitX=1;exitY=0.5;exitDx=0;exitDy=0;entryX=0;entryY=0.5;entryDx=0;entryDy=0;" edge="1" parent="1" source="p44W1_RWTx9BuEISgwGz-2" target="p44W1_RWTx9BuEISgwGz-5">
          <mxGeometry relative="1" as="geometry" />
        </mxCell>
        <mxCell id="p44W1_RWTx9BuEISgwGz-2" value="External&lt;br&gt;Feed&lt;br&gt;(e.g. Anvil)" style="rounded=0;whiteSpace=wrap;html=1;" vertex="1" parent="1">
          <mxGeometry x="-100" y="60" width="120" height="60" as="geometry" />
        </mxCell>
        <mxCell id="p44W1_RWTx9BuEISgwGz-7" style="edgeStyle=orthogonalEdgeStyle;rounded=0;orthogonalLoop=1;jettySize=auto;html=1;exitX=1;exitY=0.5;exitDx=0;exitDy=0;" edge="1" parent="1" source="p44W1_RWTx9BuEISgwGz-5" target="p44W1_RWTx9BuEISgwGz-1">
          <mxGeometry relative="1" as="geometry">
            <Array as="points">
              <mxPoint x="195" y="90" />
              <mxPoint x="195" y="120" />
            </Array>
          </mxGeometry>
        </mxCell>
        <mxCell id="p44W1_RWTx9BuEISgwGz-5" value="Feed Upload&lt;br&gt;Triggered by Feed" style="rounded=0;whiteSpace=wrap;html=1;" vertex="1" parent="1">
          <mxGeometry x="50" y="60" width="120" height="60" as="geometry" />
        </mxCell>
        <mxCell id="p44W1_RWTx9BuEISgwGz-8" value="Incident&lt;br&gt;State" style="shape=cylinder;whiteSpace=wrap;html=1;boundedLbl=1;backgroundOutline=1;" vertex="1" parent="1">
          <mxGeometry x="660" y="89.5" width="60" height="80" as="geometry" />
        </mxCell>
        <mxCell id="p44W1_RWTx9BuEISgwGz-9" value="" style="aspect=fixed;pointerEvents=1;shadow=0;dashed=0;html=1;strokeColor=none;labelPosition=center;verticalLabelPosition=bottom;verticalAlign=top;align=center;fillColor=#00188D;shape=mxgraph.azure.queue_generic" vertex="1" parent="1">
          <mxGeometry x="360" y="112.5" width="116.67" height="35" as="geometry" />
        </mxCell>
        <mxCell id="p44W1_RWTx9BuEISgwGz-11" value="" style="outlineConnect=0;fontColor=#232F3E;gradientColor=none;fillColor=#D05C17;strokeColor=none;dashed=0;verticalLabelPosition=bottom;verticalAlign=top;align=center;html=1;fontSize=12;fontStyle=0;aspect=fixed;pointerEvents=1;shape=mxgraph.aws4.lambda_function;" vertex="1" parent="1">
          <mxGeometry x="150" y="40" width="30" height="30" as="geometry" />
        </mxCell>
        <mxCell id="p44W1_RWTx9BuEISgwGz-12" value="" style="outlineConnect=0;fontColor=#232F3E;gradientColor=none;fillColor=#D05C17;strokeColor=none;dashed=0;verticalLabelPosition=bottom;verticalAlign=top;align=center;html=1;fontSize=12;fontStyle=0;aspect=fixed;pointerEvents=1;shape=mxgraph.aws4.lambda_function;" vertex="1" parent="1">
          <mxGeometry x="320" y="82.5" width="30" height="30" as="geometry" />
        </mxCell>
        <mxCell id="p44W1_RWTx9BuEISgwGz-22" style="edgeStyle=orthogonalEdgeStyle;rounded=0;orthogonalLoop=1;jettySize=auto;html=1;exitX=1;exitY=0.5;exitDx=0;exitDy=0;entryX=0;entryY=0.5;entryDx=0;entryDy=0;" edge="1" parent="1" source="p44W1_RWTx9BuEISgwGz-15" target="p44W1_RWTx9BuEISgwGz-8">
          <mxGeometry relative="1" as="geometry" />
        </mxCell>
        <mxCell id="p44W1_RWTx9BuEISgwGz-25" style="edgeStyle=orthogonalEdgeStyle;rounded=0;orthogonalLoop=1;jettySize=auto;html=1;exitX=0.5;exitY=1;exitDx=0;exitDy=0;entryX=0.5;entryY=0;entryDx=0;entryDy=0;" edge="1" parent="1" source="p44W1_RWTx9BuEISgwGz-15" target="p44W1_RWTx9BuEISgwGz-23">
          <mxGeometry relative="1" as="geometry" />
        </mxCell>
        <mxCell id="p44W1_RWTx9BuEISgwGz-15" value="Incident Update" style="rounded=0;whiteSpace=wrap;html=1;" vertex="1" parent="1">
          <mxGeometry x="490" y="100" width="120" height="60" as="geometry" />
        </mxCell>
        <mxCell id="p44W1_RWTx9BuEISgwGz-16" value="" style="outlineConnect=0;fontColor=#232F3E;gradientColor=none;fillColor=#D05C17;strokeColor=none;dashed=0;verticalLabelPosition=bottom;verticalAlign=top;align=center;html=1;fontSize=12;fontStyle=0;aspect=fixed;pointerEvents=1;shape=mxgraph.aws4.lambda_function;" vertex="1" parent="1">
          <mxGeometry x="590" y="82.5" width="30" height="30" as="geometry" />
        </mxCell>
        <mxCell id="p44W1_RWTx9BuEISgwGz-18" value="" style="outlineConnect=0;dashed=0;verticalLabelPosition=bottom;verticalAlign=top;align=center;html=1;shape=mxgraph.aws3.dynamo_db;fillColor=#2E73B8;gradientColor=none;" vertex="1" parent="1">
          <mxGeometry x="700" y="70" width="34.67" height="39" as="geometry" />
        </mxCell>
        <mxCell id="p44W1_RWTx9BuEISgwGz-20" style="edgeStyle=orthogonalEdgeStyle;rounded=0;orthogonalLoop=1;jettySize=auto;html=1;exitX=1;exitY=0.5;exitDx=0;exitDy=0;entryX=0;entryY=0.75;entryDx=0;entryDy=0;" edge="1" parent="1" source="p44W1_RWTx9BuEISgwGz-19" target="p44W1_RWTx9BuEISgwGz-1">
          <mxGeometry relative="1" as="geometry" />
        </mxCell>
        <mxCell id="p44W1_RWTx9BuEISgwGz-19" value="Manual&lt;br&gt;incident form" style="rounded=0;whiteSpace=wrap;html=1;" vertex="1" parent="1">
          <mxGeometry x="50" y="140" width="120" height="60" as="geometry" />
        </mxCell>
        <mxCell id="p44W1_RWTx9BuEISgwGz-21" value="" style="outlineConnect=0;dashed=0;verticalLabelPosition=bottom;verticalAlign=top;align=center;html=1;shape=mxgraph.aws3.sqs;fillColor=#D9A741;gradientColor=none;" vertex="1" parent="1">
          <mxGeometry x="449.52" y="87" width="27.15" height="33" as="geometry" />
        </mxCell>
        <mxCell id="p44W1_RWTx9BuEISgwGz-23" value="Incident&lt;br&gt;Update&lt;br&gt;Archive" style="shape=cylinder;whiteSpace=wrap;html=1;boundedLbl=1;backgroundOutline=1;" vertex="1" parent="1">
          <mxGeometry x="520" y="190" width="60" height="80" as="geometry" />
        </mxCell>
      </root>
    </mxGraphModel>
  </diagram>
</mxfile>
